<?xml version="1.0" standalone="no"?>
<!DOCTYPE svg PUBLIC "-//W3C//DTD SVG 20010904//EN"
 "http://www.w3.org/TR/2001/REC-SVG-20010904/DTD/svg10.dtd">
<svg version="1.0" xmlns="http://www.w3.org/2000/svg"
 width="300.000000pt" height="300.000000pt" viewBox="0 0 300.000000 300.000000"
 preserveAspectRatio="xMidYMid meet">

<g transform="translate(0.000000,300.000000) scale(0.100000,-0.100000)"
fill="#000000" stroke="none">
<path d="M0 1500 l0 -1500 1500 0 1500 0 0 1500 0 1500 -1500 0 -1500 0 0
-1500z m740 1132 l0 -327 -175 -90 -175 -90 -175 90 -175 90 0 321 c0 176 3
324 7 327 3 4 161 7 350 7 l343 0 0 -328z m478 -513 c112 -42 174 -194 123
-304 -40 -88 -113 -135 -211 -135 -181 0 -287 187 -195 345 54 94 175 134 283
94z m490 -136 c-11 -183 -107 -355 -250 -451 l-38 -25 0 -508 0 -509 -265 0
-265 0 0 305 0 305 -56 0 -56 0 4 173 c3 193 10 214 75 264 l36 28 201 5 c194
5 203 6 251 32 150 79 245 234 245 398 l0 70 61 0 62 0 -5 -87z m252 -330 c18
-23 21 -37 17 -73 -5 -38 1 -60 39 -143 24 -54 44 -103 44 -108 0 -6 -19 -9
-42 -7 l-42 3 -40 92 c-30 70 -46 93 -63 98 -59 14 -82 89 -42 139 16 21 29
26 64 26 36 0 48 -5 65 -27z m260 -553 l0 -140 -120 0 -120 0 0 -300 0 -300
-100 0 -100 0 0 300 0 300 -140 0 -140 0 0 140 0 140 360 0 360 0 0 -140z"/>
<path d="M212 2725 l0 -175 178 0 179 0 0 175 0 175 -179 0 -178 0 0 -175z
m48 131 c0 -3 -4 -8 -10 -11 -5 -3 -10 -1 -10 4 0 6 5 11 10 11 6 0 10 -2 10
-4z m280 -16 c0 -19 -7 -20 -95 -20 -88 0 -98 -2 -120 -24 -31 -31 -40 -67
-27 -106 10 -28 9 -30 -12 -30 -40 0 -48 70 -15 129 33 59 60 70 172 71 90 0
97 -1 97 -20z m-110 -68 c42 -34 17 -112 -34 -112 -59 0 -87 69 -46 110 25 25
51 25 80 2z m94 2 c13 -34 5 -92 -17 -125 -35 -53 -78 -69 -179 -69 -80 0 -88
2 -88 19 0 17 10 19 96 23 94 3 96 4 125 36 31 34 38 77 19 113 -9 16 -7 19
14 19 13 0 27 -7 30 -16z m16 -179 c0 -8 -7 -15 -16 -15 -14 0 -14 3 -4 15 7
8 14 15 16 15 2 0 4 -7 4 -15z"/>
<path d="M372 2751 c-8 -4 -12 -19 -10 -32 2 -18 9 -24 28 -24 19 0 26 6 28
24 3 20 -11 41 -28 41 -3 0 -11 -4 -18 -9z"/>
<path d="M192 2464 c-28 -20 -31 -83 -4 -107 20 -18 87 -23 97 -7 4 6 -6 7
-26 3 -25 -5 -35 -2 -46 12 -34 48 0 112 52 99 20 -5 26 -4 21 5 -10 16 -68
14 -94 -5z"/>
<path d="M310 2410 c0 -63 2 -70 20 -70 18 0 20 7 20 70 0 63 -2 70 -20 70
-18 0 -20 -7 -20 -70z"/>
<path d="M380 2410 l0 -70 45 0 c56 0 85 25 85 74 0 44 -29 66 -87 66 l-43 0
0 -70z m78 44 c41 -28 20 -104 -29 -104 -17 0 -19 7 -19 60 0 65 8 72 48 44z"/>
<path d="M540 2410 l0 -70 41 0 c22 0 38 4 35 9 -3 5 -15 7 -26 4 -17 -4 -20
0 -20 25 0 24 5 32 23 35 l22 4 -22 2 c-34 2 -32 41 2 41 14 0 25 5 25 10 0 6
-18 10 -40 10 l-40 0 0 -70z"/>
</g>
</svg>
